<svg xmlns="http://www.w3.org/2000/svg" xmlns:xlink="http://www.w3.org/1999/xlink" xml:space="preserve" version="1.1" style="shape-rendering:geometricPrecision;text-rendering:geometricPrecision;image-rendering:optimizeQuality;" viewBox="0 0 268 471.25" x="0px" y="0px" fill-rule="evenodd" clip-rule="evenodd">
  <defs>
  <style type="text/css">
      .fil0 {fill:black}
    </style>
  </defs>
  <g>
    <path class="fil0" d="M134 0c74,0 134,60 134,134 0,74 -80,171 -127,239 -3,5 -10,5 -14,0 -46,-68 -127,-165 -127,-239 0,-74 60,-134 134,-134zm0 70c36,0 65,29 65,64 0,36 -29,65 -65,65 -35,0 -64,-29 -64,-65 0,-35 29,-64 64,-64z"/>
  </g>
</svg>