<svg width="500" height="151.47" viewBox="0 0 500 151.465" xmlns="http://www.w3.org/2000/svg">
  <g fill="#666" fill-rule="evenodd">
    <path
      d="M162.09 66.01c0 14.462-4.974 26.599-16.224 40.205v-80.03c9.733 8.84 16.224 24.446 16.224 39.826m14.064-.679c0-20.121-11.042-42.407-27.7-55.15-4.968-3.915-7.775-5.64-16.64-10.174v151.01h14.052v-25.951c22.727-23.155 30.288-37.88 30.288-59.738M228.8 66.01c0 14.462-4.992 26.599-16.248 40.205v-80.03c9.758 8.84 16.248 24.446 16.248 39.826m17.301 85.463v-14.077c-11.899-2.612-20.133-9.079-25.963-20.549 17.961-19.925 22.739-30.955 22.739-51.278 0-20.359-11.054-42.413-27.713-55.389-4.98-3.915-7.788-5.64-16.664-10.174v151.01h14.052v-22.066c7.586 13.844 18.616 21.197 33.549 22.519M301.78 151.02v-14.083h-23.357v-16.64h23.357V106.22h-23.357V20.763h23.357V6.711h-37.434v144.31zM368.4 20.76V6.708h-47.815V20.76h16.891v130.26h14.052V20.76zM456.24 33.24l11.734 34.405h32.019l-25.627 18.029 9.978 31.31-28.104-18.261-27.89 18.022 9.965-31.071-26.092-18.029h32.27zM44 34.19l11.734 34.393h32.007L62.139 86.624l9.953 31.304L44 99.667l-27.89 18.022 9.966-31.065-26.08-18.041h32.247z"/>
  </g>
</svg>
