<svg xmlns="http://www.w3.org/2000/svg" xmlns:xlink="http://www.w3.org/1999/xlink" viewBox="0 0 682.07 261.73">
  <path d="M113.12,382.33v6a14.14,14.14,0,0,0-9.16-3.71,11.67,11.67,0,0,0-8.8,3.76,12.62,12.62,0,0,0-3.59,9.11,12.35,12.35,0,0,0,3.59,9,11.93,11.93,0,0,0,8.81,3.66,10.72,10.72,0,0,0,4.58-.89,12.74,12.74,0,0,0,2.18-1.18,26,26,0,0,0,2.39-1.79v6.16a18.41,18.41,0,0,1-9.22,2.5,17,17,0,0,1-12.38-5.07,16.76,16.76,0,0,1-5.11-12.32,17.39,17.39,0,0,1,4.28-11.53,17,17,0,0,1,13.61-6.21,17.3,17.3,0,0,1,8.82,2.47" transform="translate(-84.38 -154.7)"></path>
  <path d="M135.26,397.29A16.6,16.6,0,0,1,140.5,385a17.23,17.23,0,0,1,12.55-5.12,17.69,17.69,0,0,1,17.6,17.6,16.64,16.64,0,0,1-5.22,12.39,17.88,17.88,0,0,1-24.43.56,16.61,16.61,0,0,1-5.74-13.15m5.15.06a12.53,12.53,0,0,0,21.41,9.15,13.11,13.11,0,0,0,.05-18.14,12,12,0,0,0-8.89-3.68,12.11,12.11,0,0,0-8.93,3.68,12.26,12.26,0,0,0-3.64,9" transform="translate(-84.38 -154.7)"></path>
  <polygon points="125.7 249.59 114.09 223.28 106.96 259.67 112.24 259.67 115.87 239.22 125.61 261.24 135.63 239.24 138.9 259.67 144.13 259.67 137.73 223.28 125.7 249.59"></polygon>
  <polygon points="186.48 249.59 174.85 223.28 167.72 259.67 173.01 259.67 176.66 239.22 186.4 261.24 196.4 239.24 199.66 259.67 204.91 259.67 198.52 223.28 186.48 249.59"></polygon>
  <path d="M319.17,380.52v20.37c0,2.92.48,5,1.43,6.38a7.61,7.61,0,0,0,12,0c.94-1.29,1.42-3.43,1.42-6.38V380.52h5.12v21.79a12.27,12.27,0,0,1-3.33,8.82,12.87,12.87,0,0,1-18.4,0,12.23,12.23,0,0,1-3.34-8.82V380.52Z" transform="translate(-84.38 -154.7)"></path>
  <polygon points="282.61 259.67 287.73 259.67 287.73 235.97 312.41 261.73 312.41 225.81 307.3 225.81 307.3 249.33 282.61 223.52 282.61 259.67"></polygon>
  <rect x="340.28" y="225.81" width="5.11" height="33.86"></rect>
  <path d="M480.52,382.33v6a14.12,14.12,0,0,0-9.16-3.71,11.7,11.7,0,0,0-8.8,3.76,12.66,12.66,0,0,0-3.59,9.11,12.39,12.39,0,0,0,3.59,9,11.91,11.91,0,0,0,8.81,3.66,10.66,10.66,0,0,0,4.58-.89,12.17,12.17,0,0,0,2.2-1.18,25.9,25.9,0,0,0,2.37-1.79v6.16a18.41,18.41,0,0,1-9.22,2.5,16.94,16.94,0,0,1-12.37-5.07,16.76,16.76,0,0,1-5.11-12.32,17.39,17.39,0,0,1,4.28-11.53,17,17,0,0,1,13.61-6.21,17.29,17.29,0,0,1,8.81,2.47" transform="translate(-84.38 -154.7)"></path>
  <path d="M518.16,389.83l5,11.51H512.9ZM501.5,414.37H507l3.77-8.23h14.49l3.55,8.23h5.59l-16.15-36Z" transform="translate(-84.38 -154.7)"></path>
  <polygon points="466.43 225.81 466.43 230.62 474.21 230.62 474.21 259.67 479.31 259.67 479.31 230.62 487.08 230.62 487.08 225.81 466.43 225.81"></polygon>
  <rect x="511.39" y="225.81" width="5.12" height="33.86"></rect>
  <path d="M622.78,397.29A16.64,16.64,0,0,1,628,385a17.25,17.25,0,0,1,12.55-5.12,17.69,17.69,0,0,1,17.6,17.6A16.64,16.64,0,0,1,653,409.88a17.86,17.86,0,0,1-24.42.56,16.62,16.62,0,0,1-5.75-13.15m5.16.06a12.53,12.53,0,0,0,21.41,9.15,13.09,13.09,0,0,0,0-18.14,11.94,11.94,0,0,0-8.89-3.68,12.11,12.11,0,0,0-8.93,3.68,12.25,12.25,0,0,0-3.63,9" transform="translate(-84.38 -154.7)"></path>
  <polygon points="595.66 259.67 600.78 259.67 600.78 235.97 625.46 261.73 625.46 225.81 620.35 225.81 620.35 249.33 595.66 223.52 595.66 259.67"></polygon>
  <path d="M752.63,385.54,748.49,388a7.23,7.23,0,0,0-2.22-2.63,5.08,5.08,0,0,0-2.83-.71,5.31,5.31,0,0,0-3.54,1.21,3.77,3.77,0,0,0-1.39,3q0,2.49,3.68,4l3.38,1.38a14.37,14.37,0,0,1,6,4.07,9.19,9.19,0,0,1,1.9,5.89,10.35,10.35,0,0,1-3.11,7.73,10.69,10.69,0,0,1-7.78,3.06,10.42,10.42,0,0,1-7.29-2.62,12.12,12.12,0,0,1-3.53-7.35l5.18-1.14a8.74,8.74,0,0,0,1.24,4.13,5.84,5.84,0,0,0,8.56.59,5.52,5.52,0,0,0,1.58-4.06,6,6,0,0,0-.27-1.8,4.76,4.76,0,0,0-.86-1.53,6.93,6.93,0,0,0-1.5-1.28,14.74,14.74,0,0,0-2.19-1.15l-3.27-1.35q-7-3-7-8.6a8.13,8.13,0,0,1,2.93-6.37,10.5,10.5,0,0,1,7.24-2.59q5.87,0,9.15,5.68" transform="translate(-84.38 -154.7)"></path>
  <polygon class="cls-2" points="0 8.53 0 184.35 26.52 184.35 26.52 100.67 89.67 100.67 89.67 75.73 26.52 75.73 26.52 33.48 91.83 33.48 91.83 8.53 0 8.53"></polygon>
  <polygon class="cls-2" points="153.17 8.53 153.17 159.43 206.89 159.43 206.89 184.36 126.64 184.36 126.64 8.53 153.17 8.53"></polygon>
  <path class="cls-2" d="M340.5,250.64q0,29.12,19.57,47.89t45,18.78q27.66,0,46.68-19.13,19-19.32,19-47.1,0-28.1-18.78-47.1t-46.24-19.11q-27.44,0-46.34,19.11-18.92,18.9-18.89,46.66m-26.77-.29q0-37.12,27.22-63.77t65.12-26.66q37.59,0,64.46,26.89t27,64.56q0,37.94-27.09,64.34t-65.7,26.53q-34.07,0-61.16-23.57-29.82-26.07-29.83-68.32" transform="translate(-84.38 -154.7)"></path>
  <polygon class="cls-2" points="558.88 0 511.05 126.06 465.28 8.54 436.47 8.54 511.16 195.64 558.31 70.94 603.51 195.51 682.07 8.54 653.27 8.54 604.65 126.06 558.88 0"></polygon>
</svg>
