<svg xmlns="http://www.w3.org/2000/svg" width="40" height="40" viewBox="0 0 40 40" enable-background="new 0 0 40 40">
  <path fill="#666" d="M0 40h40V0H0z"/>
  <path fill="#FFF" d="M9.375 7.366h.728v4.349c0 .488-.027 1.034-.378 1.413-.172.181-.383.296-.631.346-.013-.01-.675-.675-.675-.675.196-.002.402.013.588-.064.13-.05.222-.14.276-.267.068-.127.092-.419.092-.836V7.366zm5.609.62c-.582 0-1.06.182-1.434.546-.375.364-.562.829-.562 1.394 0 .548.188 1.004.563 1.368.375.364.846.545 1.411.545.567 0 1.04-.186 1.419-.557.379-.371.569-.833.569-1.386 0-.539-.189-.991-.569-1.359-.378-.367-.843-.551-1.397-.551zm-.029-.691c.786 0 1.44.249 1.962.746.522.498.784 1.121.784 1.871 0 .749-.264 1.37-.791 1.86-.527.492-1.192.737-1.994.737-.767 0-1.405-.246-1.915-.737s-.766-1.106-.766-1.846c0-.759.258-1.387.771-1.885.515-.498 1.164-.746 1.949-.746zm8.578.071h.727v5.083h-.727v-2.212H20.56v2.212h-.729V7.366h.729V9.58h2.973V7.366zm7.488 0h.691v5.083h-.626l-3.552-3.915v3.915h-.684V7.366h.589l3.581 3.948V7.366zM6.393 18.271h.733v4.452h2.398v.66H6.393v-5.112zm5.582 0h3.23v.66h-2.497v1.544h2.421v.659h-2.421v1.589h2.564v.66h-3.297v-5.112zm12.471 0h.727l-2.075 5.157h-.143l-1.68-4.183-1.693 4.183h-.143l-2.068-5.157h.734l1.41 3.523 1.417-3.523h.695l1.425 3.523 1.394-3.523zm2.941 5.112v-5.111h.734v5.111h-.734zm4.869-2.13l-.557-.337c-.348-.214-.568-.426-.727-.624-.166-.205-.248-.456-.248-.725 0-.402.14-.729.419-.98s.651-.373 1.099-.373c.471 0 .817.12 1.174.359v.831c-.368-.354-.766-.532-1.189-.532-.238 0-.436.056-.589.167-.153.11-.229.255-.229.428 0 .153.037.28.148.414.114.134.315.29.566.438l.58.331c.623.372.914.846.914 1.422 0 .41-.142.748-.416 1.003-.275.256-.627.394-1.065.386-.504-.01-.956-.15-1.38-.472v-.929c.395.5.854.74 1.371.74.23 0 .422-.054.573-.182.152-.127.235-.287.235-.479.001-.313-.23-.607-.679-.886zM6.91 29.615c0 .061.024.131.073.211.049.08.105.149.17.207.096-.059.173-.119.229-.18.057-.061.086-.133.086-.214 0-.075-.026-.138-.08-.188s-.121-.076-.205-.076c-.073 0-.138.023-.192.068-.053.045-.081.102-.081.172zm-.325 1.429c0 .089.034.163.102.225.069.061.149.091.243.091.159 0 .326-.076.503-.23l-.476-.532c-.117.073-.208.146-.273.218-.066.069-.099.145-.099.228zm.608-2.071c.211 0 .388.061.529.18s.211.273.211.459c0 .135-.042.26-.126.377-.084.115-.212.231-.385.344l.381.441c.112-.113.215-.26.309-.441h.503c-.132.318-.301.578-.507.781l.557.629h-.693l-.255-.291c-.14.115-.275.199-.405.25-.13.051-.286.076-.467.076-.223 0-.411-.066-.565-.201-.154-.136-.23-.302-.23-.497 0-.162.055-.309.166-.438s.268-.248.47-.357c-.097-.121-.167-.231-.212-.33-.044-.098-.067-.198-.067-.3 0-.202.074-.366.222-.493.146-.126.334-.189.564-.189zm4.271 1.189c.143 0 .253-.033.334-.098.08-.065.12-.162.12-.291 0-.254-.164-.382-.491-.382h-.365v.771h.402zm.133-1.189c.26 0 .47.076.632.226.162.149.243.343.243.579 0 .24-.082.434-.246.582-.164.147-.38.221-.648.221h-.516v1.162h-.536v-2.77h1.071zm2.228 1.689h.894l-.468-1.096-.426 1.096zm.698-1.689l1.223 2.77h-.565l-.287-.674h-1.231l-.268.674h-.561l1.141-2.77h.548zm2.812 1.181c.141 0 .25-.035.33-.105.08-.069.12-.165.12-.287 0-.127-.04-.221-.119-.284-.08-.062-.193-.095-.339-.095h-.333v.771h.341zm.122-1.18c.261 0 .473.071.636.216s.246.332.246.562c0 .158-.04.295-.122.412-.082.116-.202.209-.362.275.088.048.167.113.236.195.068.081.154.22.256.414.169.335.294.566.377.693h-.597c-.042-.061-.097-.158-.167-.291-.153-.295-.266-.494-.337-.596-.071-.103-.14-.176-.206-.218-.066-.043-.142-.065-.228-.065h-.194v1.17h-.535v-2.769h.997zm4.188-.001v.419h-.982v2.351h-.535v-2.351h-.983v-.419h2.5zm1.346 0l1.646 1.934v-1.934h.522v2.77h-.46l-1.654-1.965v1.965h-.523v-2.77h.469zm5.078 0v.419h-1.255v.728h1.201v.418h-1.201v.787h1.283v.418h-1.818v-2.77h1.79zm1.937 1.181c.14 0 .25-.035.33-.105.08-.069.119-.165.119-.287 0-.127-.039-.221-.119-.284-.079-.062-.191-.095-.338-.095h-.334v.771h.342zm.12-1.18c.261 0 .473.071.637.216.163.145.245.332.245.562 0 .158-.04.295-.121.412-.082.116-.202.209-.362.275.089.048.167.113.235.195.069.081.154.22.257.414.169.335.294.566.376.693h-.596c-.041-.061-.098-.158-.168-.291-.152-.295-.265-.494-.336-.596-.071-.103-.141-.176-.206-.218-.066-.043-.142-.065-.228-.065h-.195v1.17h-.535v-2.769h.997zm2.873-.036c.27 0 .528.067.778.202v.476c-.287-.172-.541-.26-.764-.26-.134 0-.239.026-.314.078-.076.053-.115.122-.115.21 0 .104.07.2.213.289.039.026.191.101.457.222.229.107.393.227.492.357s.15.287.15.471c0 .238-.086.43-.256.576-.172.146-.393.22-.666.22-.177 0-.328-.02-.457-.06-.127-.038-.27-.105-.428-.201v-.526c.295.245.574.368.836.368.131 0 .236-.029.317-.085.079-.057.12-.132.12-.226 0-.129-.069-.232-.209-.313-.117-.063-.267-.14-.451-.228-.217-.1-.381-.215-.488-.348-.107-.132-.161-.285-.161-.459 0-.232.087-.418.259-.557.174-.137.403-.206.687-.206z"/>
</svg>
