<svg xmlns="http://www.w3.org/2000/svg" width="111" height="70"><g fill="none" fill-rule="evenodd"><path fill="#000" d="M41 70h70V0H41zM27 70h11V0H27zM14 70h5V0h-5zM0 70h3V0H0z"/><g fill="#FFF"><path d="M57.405 12.64h1.273v7.61c0 .855-.047 1.81-.66 2.474-.302.316-.67.519-1.106.605-.022-.018-1.18-1.181-1.18-1.181.343-.004.703.022 1.03-.112a.827.827 0 00.482-.467c.118-.222.161-.734.161-1.464V12.64zM67.223 13.725c-1.018 0-1.854.318-2.51.955-.654.637-.982 1.45-.982 2.44 0 .96.329 1.756.986 2.393.657.637 1.48.955 2.468.955.993 0 1.82-.325 2.484-.974.664-.649.996-1.458.996-2.426 0-.943-.332-1.735-.996-2.378-.664-.643-1.478-.965-2.446-.965m-.051-1.209c1.375 0 2.52.435 3.434 1.305.914.87 1.37 1.961 1.37 3.273 0 1.311-.461 2.397-1.383 3.256-.923.86-2.086 1.29-3.49 1.29-1.341 0-2.458-.43-3.351-1.29-.892-.859-1.34-1.936-1.34-3.23 0-1.33.45-2.429 1.35-3.299.899-.87 2.036-1.305 3.41-1.305M82.183 12.641h1.273v8.895h-1.273v-3.87H76.98v3.87h-1.274v-8.895h1.274v3.873h5.203zM95.288 12.641h1.21v8.895h-1.096l-6.216-6.85v6.85H87.99v-8.895h1.031l6.267 6.91zM52.187 31.724v8.945h5.48v-1.154h-4.196v-7.79zM61.956 31.724v8.945h5.771v-1.154H63.24v-2.78h4.237V35.58H63.24v-2.702h4.37v-1.154zM83.781 31.724l-2.44 6.165-2.494-6.165H77.63l-2.478 6.165-2.467-6.165H71.4l3.62 9.024h.248l2.964-7.319 2.94 7.32h.25l3.63-9.025zM88.926 40.669h1.286v-8.944h-1.286zM97.448 36.943l-.974-.591c-.61-.373-.996-.745-1.273-1.091a1.99 1.99 0 01-.433-1.268c0-.704.244-1.277.733-1.716.49-.439 1.14-.652 1.922-.652.823 0 1.431.21 2.054.629v1.454c-.644-.62-1.338-.931-2.08-.931-.419 0-.762.097-1.03.291-.27.193-.404.447-.404.749 0 .268.065.49.262.724.2.234.551.507.991.765l1.014.578c1.091.652 1.6 1.481 1.6 2.488 0 .718-.248 1.309-.729 1.756-.48.448-1.096.688-1.864.674-.882-.017-1.672-.262-2.414-.824v-1.626c.691.876 1.492 1.295 2.4 1.295.402 0 .736-.093 1.002-.316.267-.223.412-.503.412-.839 0-.545-.404-1.061-1.189-1.549M53.093 51.577a.73.73 0 00.128.37c.086.14.184.26.298.361.169-.103.303-.209.402-.315.1-.106.15-.23.15-.374a.435.435 0 00-.14-.33.5.5 0 00-.357-.132.513.513 0 00-.337.118.372.372 0 00-.144.302m-.57 2.5c0 .155.06.286.179.393a.62.62 0 00.425.16c.278 0 .57-.135.88-.404l-.831-.932a2.445 2.445 0 00-.48.38.575.575 0 00-.172.403m1.064-3.624c.37 0 .679.104.925.314.246.21.369.477.369.803 0 .236-.073.455-.22.658-.147.204-.372.406-.674.604l.666.77c.196-.196.376-.453.54-.77h.88c-.23.556-.526 1.011-.886 1.367l.974 1.1H54.95l-.447-.51a2.61 2.61 0 01-.71.438c-.227.09-.5.134-.816.134-.391 0-.72-.118-.99-.354a1.112 1.112 0 01-.401-.867c0-.285.097-.54.29-.765.193-.226.468-.434.823-.626a2.888 2.888 0 01-.371-.577 1.265 1.265 0 01-.118-.526c0-.353.129-.64.388-.862.258-.22.587-.33.989-.33M61.063 52.534c.25 0 .443-.058.584-.172.14-.114.21-.283.21-.508 0-.446-.286-.669-.86-.669h-.638v1.35h.703zm.231-2.08c.455 0 .823.131 1.106.393.283.262.425.6.425 1.014 0 .42-.144.757-.43 1.017-.288.26-.666.387-1.135.387h-.901V55.3h-.938v-4.846h1.874zM65.193 53.408h1.564l-.818-1.918-.746 1.918zm1.222-2.955l2.14 4.846h-.989l-.503-1.18H64.91l-.468 1.18h-.98l1.996-4.846h.958zM71.337 52.52c.246 0 .438-.061.578-.183.14-.123.21-.29.21-.503 0-.222-.069-.388-.208-.498-.139-.11-.337-.165-.593-.165h-.583v1.35h.596zm.212-2.066c.456 0 .827.126 1.113.378.287.252.43.58.43.985 0 .275-.07.515-.213.72-.142.204-.353.365-.633.483.155.083.293.197.413.34.12.143.27.386.448.725.295.587.515.992.659 1.214h-1.044a5.621 5.621 0 01-.292-.51c-.268-.515-.465-.863-.59-1.042a1.39 1.39 0 00-.36-.381.717.717 0 00-.399-.114h-.34v2.047h-.936v-4.845h1.744zM78.879 50.453v.732h-1.721V55.3h-.936v-4.114h-1.72v-.732zM81.234 50.453l2.88 3.382v-3.382h.914V55.3h-.805l-2.895-3.438V55.3h-.916v-4.846zM90.121 50.453v.732h-2.195v1.273h2.101v.731h-2.1v1.377h2.243v.733h-3.18v-4.846zM93.51 52.52c.245 0 .437-.061.577-.183.14-.123.21-.29.21-.503 0-.222-.07-.388-.208-.498-.14-.11-.337-.165-.593-.165h-.583v1.35h.597zm.21-2.066c.457 0 .828.126 1.115.378.286.252.43.58.43.985 0 .275-.071.515-.214.72-.142.204-.353.365-.633.483.155.083.293.197.413.34.12.143.27.386.448.725.295.587.515.992.659 1.214h-1.044a5.876 5.876 0 01-.292-.51c-.268-.515-.464-.863-.59-1.042a1.406 1.406 0 00-.36-.381.717.717 0 00-.4-.114h-.34v2.047h-.935v-4.845h1.744zM98.748 50.39c.472 0 .926.119 1.362.355v.833c-.5-.303-.946-.455-1.335-.455-.235 0-.42.045-.552.137a.425.425 0 00-.2.366c0 .183.123.352.371.506.07.047.336.176.801.389.398.187.685.395.861.624.175.229.263.504.263.825 0 .417-.15.752-.449 1.008-.3.256-.687.384-1.164.384-.31 0-.576-.034-.8-.103a3.464 3.464 0 01-.75-.352v-.922c.518.429 1.006.644 1.463.644.23 0 .414-.05.556-.15a.463.463 0 00.211-.394c0-.224-.122-.407-.367-.548a18.302 18.302 0 00-.788-.4c-.38-.173-.667-.375-.855-.606a1.23 1.23 0 01-.282-.804c0-.407.151-.732.454-.974.303-.241.703-.362 1.2-.362"/></g></g></svg>
